<svg xmlns="http://www.w3.org/2000/svg" viewBox="0 0 1364 960"><path fill="#69afff" d="m328.982 112.034-5.322 1.508a72.265 72.265 0 0 0-12.926-17.288l3.162-5.662c4.725-8.46 1.698-19.149-6.763-23.874-8.46-4.725-19.149-1.697-23.874 6.763l-2.701 4.836a71.734 71.734 0 0 0-21.354-3.091h-.007l-1.768-6.24c-2.641-9.324-12.34-14.741-21.664-12.1-9.324 2.641-14.741 12.34-12.1 21.664l1.508 5.323a72.235 72.235 0 0 0-17.288 12.925l-5.662-3.162c-8.46-4.725-19.149-1.698-23.874 6.763-4.725 8.46-1.697 19.149 6.763 23.874l4.834 2.7a71.755 71.755 0 0 0-3.093 21.357v.005l-6.237 1.767c-9.324 2.641-14.741 12.34-12.1 21.664 2.641 9.324 12.34 14.741 21.664 12.1l5.319-1.507a72.193 72.193 0 0 0 12.927 17.291l-3.16 5.659c-4.725 8.461-1.698 19.149 6.763 23.874 8.46 4.725 19.149 1.698 23.874-6.763l2.691-4.818.005.001a72.884 72.884 0 0 0 21.371 3.09l1.763 6.223c2.641 9.324 12.34 14.741 21.664 12.1 9.324-2.641 14.741-12.34 12.099-21.664l-1.506-5.318a72.243 72.243 0 0 0 17.291-12.928l5.659 3.161c8.46 4.725 19.149 1.697 23.875-6.763 4.725-8.46 1.697-19.149-6.763-23.875l-4.821-2.692v-.001a72.86 72.86 0 0 0 3.09-21.373l6.226-1.764c9.324-2.641 14.741-12.34 12.1-21.664-2.642-9.325-12.341-14.742-21.665-12.101zm-19.135 21.679c7.862 27.754-8.274 56.643-36.027 64.505-27.754 7.862-56.644-8.273-64.506-36.027-7.866-27.77 8.274-56.644 36.027-64.506s56.639 8.259 64.506 36.028z" class="color69AFFF svgShape"/><path fill="#69afff" d="M227.811 156.952c4.97 17.545 23.223 27.74 40.768 22.77 17.546-4.97 27.756-23.228 22.786-40.773-4.97-17.546-23.243-27.751-40.789-22.781-17.545 4.97-27.735 23.238-22.765 40.784z" class="color69AFFF svgShape"/><path fill="#5096e6" d="M296.323 66.712c8.461 4.725 11.488 15.414 6.763 23.874l-3.162 5.662c5.075 5.006 10.87 12.966 14.34 19.436 0 0 8.184-2.106 9.603-2.148-3.26-5.611-8.628-12.84-13.133-17.284l3.162-5.662c4.726-8.46 1.698-19.149-6.763-23.874-4.426-2.472-9.456-2.804-13.929-1.365a17.74 17.74 0 0 1 3.119 1.361zM254.13 199.908c-20.611-2.172-38.823-16.562-44.816-37.716-7.867-27.77 8.273-56.644 36.027-64.506a52.523 52.523 0 0 1 8.887-1.696 52.074 52.074 0 0 0-19.697 1.691c-27.754 7.862-43.894 36.736-36.027 64.506 7.024 24.798 30.837 40.304 55.626 37.721zM332.321 147.561l6.226-1.764c9.323-2.641 14.741-12.34 12.1-21.664-2.641-9.324-12.34-14.741-21.664-12.1l-.639.181c5.388 1.744 9.834 6.056 11.493 11.914 2.641 9.324-2.776 19.023-12.1 21.664l-6.226 1.764a72.864 72.864 0 0 1-3.09 21.373l-.001.001 4.821 2.692c8.461 4.726 11.489 15.415 6.763 23.875-2.253 4.034-5.868 6.816-9.946 8.128 7.815 2.556 16.596-.675 20.756-8.123 4.725-8.46 1.697-19.149-6.763-23.875l-4.821-2.692.001-.001a72.893 72.893 0 0 0 3.09-21.373zM293.99 212.033a72.368 72.368 0 0 0 13.313-9.192c-.393-.183-.788-.365-1.173-.58l-5.659-3.161a72.243 72.243 0 0 1-17.291 12.928l1.507 5.318c2.585 9.125-2.559 18.59-11.517 21.467a17.468 17.468 0 0 0 10.228.202c9.323-2.641 14.74-12.34 12.1-21.664l-1.508-5.318zM227.789 217.598l-.005-.001-2.691 4.819c-2.253 4.034-5.868 6.816-9.945 8.128 7.814 2.556 16.595-.675 20.755-8.123l1.475-2.641a72.746 72.746 0 0 1-9.589-2.182z" class="color5096E6 svgShape"/><path fill="#c8cbe3" d="m1317.796 385.382-1.797-39.692a3.59 3.59 0 0 0-1.935-3.025l-15.3-7.912-13.455 26.02c-10.609 20.514-35.839 28.545-56.354 17.936-20.513-10.609-28.544-35.839-17.936-56.353l13.457-26.02-15.299-7.911a3.586 3.586 0 0 0-3.58.164l-33.348 21.32a3.584 3.584 0 0 0-1.651 3.184l3.566 78.788a3.587 3.587 0 0 0 1.932 3.023l15.95 8.27-130.889 253.103c-5.471 10.581-1.312 23.569 9.238 29.026 10.58 5.471 23.553 1.342 29.025-9.238l130.867-253.061 15.826 8.206a3.59 3.59 0 0 0 3.583-.161l66.45-42.483a3.588 3.588 0 0 0 1.65-3.184zm-240.958 287.462c-4.82-2.492-6.737-8.438-4.23-13.286 2.493-4.82 8.468-6.721 13.287-4.228 4.849 2.507 6.721 8.467 4.229 13.286a9.843 9.843 0 0 1-13.286 4.228z" class="colorC8CBE3 svgShape"/><path fill="#c8cbe3" d="m1317.796 385.382-1.797-39.692a3.59 3.59 0 0 0-1.935-3.025l-15.3-7.912-13.455 26.02c-10.609 20.514-35.839 28.545-56.354 17.936-20.513-10.609-28.544-35.839-17.936-56.353l13.457-26.02-15.299-7.911a3.586 3.586 0 0 0-3.58.164l-33.348 21.32a3.584 3.584 0 0 0-1.651 3.184l3.566 78.788a3.587 3.587 0 0 0 1.932 3.023l15.95 8.27-130.889 253.103c-5.471 10.581-1.312 23.569 9.238 29.026 10.58 5.471 23.553 1.342 29.025-9.238l130.867-253.061 15.826 8.206a3.59 3.59 0 0 0 3.583-.161l66.45-42.483a3.588 3.588 0 0 0 1.65-3.184zm-240.958 287.462c-4.82-2.492-6.737-8.438-4.23-13.286 2.493-4.82 8.468-6.721 13.287-4.228 4.849 2.507 6.721 8.467 4.229 13.286a9.843 9.843 0 0 1-13.286 4.228z" class="colorC8CBE3 svgShape"/><path fill="#a1a6c9" d="M1175.096 394.095c.286.32.609.607 1 .81l9.275 4.81.119-.229-10.394-5.391zM1224.475 296.338l-6.677-3.454-13.333 25.783c-10.609 20.514-2.578 45.745 17.936 56.353.654.339 1.327.605 1.99.906-17.064-11.781-23.148-34.662-13.37-53.568l13.454-26.02zM1316.001 345.69a3.591 3.591 0 0 0-1.937-3.024l-5.541-2.865c.535.606.885 1.366.922 2.199l1.797 39.692a3.59 3.59 0 0 1-1.652 3.184l-66.45 42.483a3.584 3.584 0 0 1-3.583.161l-15.825-8.205-130.868 253.06c-5.008 9.685-16.299 13.94-26.289 10.397a21.55 21.55 0 0 0 3.818 2.531c10.58 5.471 23.554 1.342 29.025-9.237l130.867-253.062 15.827 8.207a3.59 3.59 0 0 0 3.583-.162l66.45-42.483a3.582 3.582 0 0 0 1.65-3.184l-1.794-39.692zM1073.626 670.155c-2.299-2.939-2.85-7.054-1.017-10.599 1.938-3.748 5.981-5.697 9.952-5.222a9.772 9.772 0 0 0-3.219-2.697c-4.821-2.492-10.794-.591-13.288 4.229-2.506 4.849-.591 10.794 4.23 13.286 1.075.559 2.207.865 3.342 1.003z" class="colorA1A6C9 svgShape"/><path fill="#c6c5db" d="M50.734 373.622a2.663 2.663 0 0 0-4.282 3.027l8.273 17.667 97.683 138.208 9.901-6.998-97.683-138.209-13.892-13.695z" class="colorC6C5DB svgShape"/><path fill="#a19fc7" d="M50.734 373.622a2.658 2.658 0 0 0-4.505 2.23c.244.122.474.277.676.477l13.893 13.695 97.683 138.208 3.829-2.706-97.684-138.209-13.892-13.695z" class="colorA19FC7 svgShape"/><path fill="#d94559" d="m184.499 509.841-52.039 36.781a6.65 6.65 0 0 0-1.592 9.269l7.18 10.159 62.901-44.457-7.18-10.159a6.65 6.65 0 0 0-9.27-1.593z" class="colorD94559 svgShape"/><path fill="#c42f43" d="m185.014 509.55.824 1.165c3.452 4.884 2.291 11.642-2.593 15.094l-49.107 34.708 3.911 5.533 62.901-44.457-7.18-10.159c-2.005-2.836-5.811-3.596-8.756-1.884z" class="colorC42F43 svgShape"/><path fill="#d94559" d="M251.63 587.324c-20.7-13.635-35.981-27.323-37.297-52.769-22.77 17.051-45.739 32.635-68.062 48.105 29.978 13.097 37.337 52.758 37.357 52.753 13.491 44.971 39.665 83.774 76.069 112.933 5.156 4.13 13.03 4.679 20.228 1.335 17.675-8.21 33.017-19.719 46.798-33.437 5.767-5.74 8.096-13.508 5.861-19.892-15.368-43.889-51.95-89.923-80.954-109.028z" class="colorD94559 svgShape"/><path fill="#c42f43" d="M251.63 587.324c-20.7-13.635-35.981-27.323-37.297-52.769-22.77 17.051-45.739 32.635-68.062 48.105a48.963 48.963 0 0 1 7.814 4.308c12.295-8.491 24.727-17.101 37.16-26.05 7.072-5.09 17.044-2.219 20.313 5.858 5.963 14.736 18.254 24.79 33.474 34.816 29.004 19.105 65.586 65.139 80.955 109.028.618 1.763.875 3.632.82 5.535 5.704-5.732 8.001-13.453 5.777-19.804-15.368-43.888-51.95-89.922-80.954-109.027z" class="colorC42F43 svgShape"/><path fill="#d94559" d="m199.566 520.123-63.173 44.649c-5.015 3.545-6.208 10.485-2.663 15.501 3.545 5.015 10.485 6.208 15.501 2.663l63.173-44.649c5.015-3.545 6.208-10.485 2.663-15.501-3.545-5.016-10.485-6.208-15.501-2.663z" class="colorD94559 svgShape"/><path fill="#8684c7" d="m167.405 521.923-20.093 14.201-3.829-5.417c-3.921-5.549-2.603-13.226 2.946-17.147 5.549-3.922 13.226-2.603 17.148 2.946l3.828 5.417z" class="color8684C7 svgShape"/><path fill="#d94559" d="m149.542 511.36-6.225 4.399a8.493 8.493 0 0 0-2.033 11.836l6.028 8.529 20.094-14.202-6.028-8.529a8.494 8.494 0 0 0-11.836-2.033z" class="colorD94559 svgShape"/><path fill="#c42f43" d="M151.743 510.245a8.44 8.44 0 0 1 3.585 2.892l3.053 4.319a5.156 5.156 0 0 1-1.234 7.186l-11.97 8.46 2.135 3.021 20.094-14.202-6.028-8.529c-2.218-3.135-6.172-4.309-9.635-3.147z" class="colorC42F43 svgShape"/><path fill="#ffffff" d="M1116.523 193.305v486.308c0 7.375-6.089 13.353-13.618 13.353H281.588c-7.528 0-13.635-5.978-13.635-13.353V193.305c0-7.374 6.106-13.353 13.635-13.353h821.317c7.528 0 13.618 5.978 13.618 13.353z" class="colorFFF svgShape"/><path fill="#e3e5f2" d="M319.781 250.58h489.113v176.962H319.781zM485.957 547.553h42.533v42.532h-42.533zM541.456 547.553h42.533v42.532h-42.533zM485.957 615.148h42.533v42.531h-42.533zM541.456 615.148h42.533v42.531h-42.533zM960.034 475.39H326.616a6.076 6.076 0 0 1 0-12.152h633.417a6.077 6.077 0 0 1 6.076 6.076 6.075 6.075 0 0 1-6.075 6.076zM960.034 503.492H326.616a6.075 6.075 0 0 1 0-12.151h633.417a6.075 6.075 0 1 1 .001 12.151zM634.989 547.553h426.434v110.126H634.989z" class="colorE3E5F2 svgShape"/><path fill="#4d5275" d="M1275.093 861.281H107.829c-4.449 0-8.055 2.765-8.055 6.176v22.336c0 7.726 8.168 13.99 18.244 13.99h1148.569c10.077 0 18.244-6.264 18.244-13.99v-21.045c.001-4.123-4.359-7.467-9.738-7.467z" class="color4D5275 svgShape"/><path fill="#bcc1db" d="M1267.318 874.03H117.294c-9.467 0-20.457-5.863-16.8-9.05l162.114-141.346c1.557-1.359 4.2-2.109 7.428-2.109h844.459c3.227 0 5.873.75 7.429 2.109l162.187 141.346c3.659 3.188-7.325 9.05-16.793 9.05z" class="colorBCC1DB svgShape"/><path fill="#9fa6d1" d="M365.76 746.144h-41.197c-4.286 0-8.833 1.208-10.16 2.706l-10.626 12.001c-1.408 1.593 1.057 2.892 5.516 2.892h42.848c4.459 0 9.056-1.299 10.26-2.892l9.077-12.001c1.133-1.498-1.43-2.706-5.718-2.706zM303.085 827.133h-48.79c-5.078 0-10.695 1.695-12.56 3.801l-15.012 16.958c-2.004 2.261.673 4.11 5.993 4.11h51.123c5.321 0 11.032-1.849 12.743-4.11l12.823-16.958c1.593-2.107-1.242-3.801-6.32-3.801zM384.5 827.133h-48.79c-5.078 0-10.431 1.695-11.964 3.801l-12.359 16.958c-1.65 2.261 1.317 4.11 6.637 4.11h51.122c5.322 0 10.743-1.849 12.1-4.11l10.171-16.958c1.262-2.107-1.837-3.801-6.917-3.801zM844.522 827.133h-48.789c-5.078 0-8.93 1.695-8.605 3.801l2.631 16.958c.35 2.261 4.951 4.11 10.271 4.11h51.121c5.322 0 9.11-1.849 8.465-4.11l-4.817-16.958c-.601-2.107-5.2-3.801-10.277-3.801zM928.162 827.133h-48.789c-5.079 0-8.659 1.695-7.994 3.801l5.357 16.958c.715 2.261 5.611 4.11 10.932 4.11h51.121c5.321 0 8.814-1.849 7.804-4.11l-7.544-16.958c-.937-2.107-5.808-3.801-10.887-3.801zM1011.803 827.133h-48.791c-5.078 0-8.387 1.695-7.381 3.801l8.079 16.958c1.078 2.261 6.273 4.11 11.596 4.11h51.121c5.319 0 8.513-1.849 7.143-4.11l-10.269-16.958c-1.278-2.107-6.421-3.801-11.498-3.801zM1148.147 827.133h-94.914c-9.879 0-16.814 1.695-15.482 3.801l10.74 16.958c1.432 2.261 10.992 4.11 21.343 4.11h99.45c10.354 0 17.108-1.849 15.107-4.11l-14.995-16.958c-1.863-2.107-11.37-3.801-21.249-3.801zM440.893 746.144h-41.197c-4.288 0-8.626 1.208-9.698 2.706l-8.573 12.001c-1.138 1.593 1.549 2.892 6.01 2.892h42.846c4.459 0 8.835-1.299 9.767-2.892l7.024-12.001c.877-1.498-1.892-2.706-6.179-2.706zM447.985 768.198h-43.721c-4.551 0-9.139 1.359-10.256 3.049l-8.963 13.548c-1.192 1.801 1.681 3.272 6.427 3.272h45.576c4.744 0 9.369-1.471 10.331-3.272l7.221-13.548c.9-1.689-2.063-3.049-6.615-3.049zM528.517 768.198h-43.72c-4.551 0-8.907 1.359-9.734 3.049l-6.632 13.548c-.881 1.801 2.244 3.272 6.989 3.272h45.576c4.744 0 9.12-1.471 9.768-3.272l4.891-13.548c.611-1.689-2.585-3.049-7.138-3.049zM609.05 768.198h-43.722c-4.549 0-8.67 1.359-9.206 3.049l-4.305 13.548c-.571 1.801 2.809 3.272 7.551 3.272h45.577c4.744 0 8.865-1.471 9.206-3.272l2.561-13.548c.32-1.689-3.112-3.049-7.662-3.049zM689.582 768.198h-43.723c-4.549 0-8.436 1.359-8.681 3.049l-1.974 13.548c-.262 1.801 3.368 3.272 8.112 3.272h45.577c4.744 0 8.615-1.471 8.645-3.272l.231-13.548c.027-1.689-3.637-3.049-8.187-3.049zM770.112 768.198h-43.719c-4.55 0-8.204 1.359-8.159 3.049l.355 13.548c.048 1.801 3.932 3.272 8.675 3.272h45.578c4.743 0 8.36-1.471 8.08-3.272l-2.099-13.548c-.26-1.689-4.159-3.049-8.711-3.049zM850.646 768.198h-43.722c-4.551 0-7.97 1.359-7.636 3.049l2.687 13.548c.358 1.801 4.496 3.272 9.237 3.272h45.578c4.743 0 8.106-1.471 7.52-3.272l-4.43-13.548c-.551-1.689-4.683-3.049-9.234-3.049zM931.177 768.198h-43.722c-4.55 0-7.736 1.359-7.11 3.049l5.016 13.548c.668 1.801 5.058 3.272 9.8 3.272h45.575c4.745 0 7.86-1.471 6.96-3.272l-6.759-13.548c-.843-1.689-5.211-3.049-9.76-3.049zM1011.708 768.198h-43.722c-4.55 0-7.499 1.359-6.584 3.049l7.347 13.548c.976 1.801 5.619 3.272 10.363 3.272h45.573c4.745 0 7.603-1.471 6.398-3.272l-9.09-13.548c-1.132-1.689-5.734-3.049-10.285-3.049zM462.526 796.773h-45.942c-4.783 0-9.572 1.502-10.708 3.368l-9.113 14.997c-1.215 1.996 1.844 3.627 6.84 3.627h48.006c4.997 0 9.827-1.631 10.782-3.627l7.179-14.997c.895-1.865-2.262-3.368-7.044-3.368zM540.869 796.773h-45.945c-4.78 0-9.331 1.502-10.167 3.368l-6.718 14.997c-.895 1.996 2.425 3.627 7.421 3.627h48.006c4.998 0 9.567-1.631 10.205-3.627l4.781-14.997c.596-1.865-2.802-3.368-7.583-3.368zM619.209 796.773h-45.942c-4.782 0-9.091 1.502-9.629 3.368l-4.323 14.997c-.575 1.996 3.006 3.627 8.004 3.627h48.005c4.996 0 9.305-1.631 9.623-3.627l2.385-14.997c.298-1.865-3.34-3.368-8.123-3.368zM697.551 796.773h-45.943c-4.784 0-8.852 1.502-9.091 3.368l-1.924 14.997c-.257 1.996 3.586 3.627 8.582 3.627h48.004c4.996 0 9.046-1.631 9.044-3.627l-.012-14.997c-.001-1.865-3.876-3.368-8.66-3.368zM775.891 796.773h-45.942c-4.782 0-8.611 1.502-8.552 3.368l.475 14.997c.062 1.996 4.163 3.627 9.16 3.627h48.004c4.998 0 8.785-1.631 8.463-3.627l-2.409-14.997c-.299-1.865-4.416-3.368-9.199-3.368zM854.234 796.773h-45.945c-4.779 0-8.37 1.502-8.011 3.368l2.869 14.997c.383 1.996 4.746 3.627 9.742 3.627h48.006c4.996 0 8.524-1.631 7.884-3.627l-4.807-14.997c-.598-1.865-4.956-3.368-9.738-3.368zM932.575 796.773h-45.943c-4.782 0-8.13 1.502-7.474 3.368l5.269 14.997c.701 1.996 5.323 3.627 10.319 3.627h48.006c4.997 0 8.264-1.631 7.306-3.627l-7.204-14.997c-.898-1.865-5.496-3.368-10.279-3.368zM1010.917 796.773h-45.944c-4.78 0-7.889 1.502-6.935 3.368l7.664 14.997c1.021 1.996 5.905 3.627 10.902 3.627h48.006c4.996 0 8.002-1.631 6.723-3.627l-9.599-14.997c-1.195-1.865-6.035-3.368-10.817-3.368zM516.022 746.144h-41.196c-4.289 0-8.42 1.208-9.235 2.706l-6.521 12.001c-.866 1.593 2.043 2.892 6.502 2.892h42.849c4.458 0 8.612-1.299 9.272-2.892l4.972-12.001c.623-1.498-2.354-2.706-6.643-2.706zM591.154 746.144h-41.198c-4.286 0-8.213 1.208-8.771 2.706l-4.469 12.001c-.593 1.593 2.539 2.892 6.999 2.892h42.848c4.459 0 8.39-1.299 8.778-2.892l2.918-12.001c.365-1.498-2.816-2.706-7.105-2.706zM666.287 746.144h-41.198c-4.288 0-8.007 1.208-8.309 2.706l-2.418 12.001c-.319 1.593 3.033 2.892 7.493 2.892h42.847c4.459 0 8.168-1.299 8.284-2.892l.867-12.001c.11-1.498-3.279-2.706-7.566-2.706zM741.417 746.144h-41.195c-4.29 0-7.801 1.208-7.846 2.706l-.365 12.001c-.049 1.593 3.528 2.892 7.987 2.892h42.848c4.459 0 7.946-1.299 7.788-2.892l-1.185-12.001c-.148-1.498-3.744-2.706-8.032-2.706zM816.549 746.144h-41.197c-4.289 0-7.593 1.208-7.384 2.706l1.688 12.001c.224 1.593 4.021 2.892 8.481 2.892h42.847c4.459 0 7.724-1.299 7.294-2.892l-3.237-12.001c-.403-1.498-4.203-2.706-8.492-2.706zM891.681 746.144h-41.197c-4.288 0-7.388 1.208-6.919 2.706l3.739 12.001c.496 1.593 4.518 2.892 8.976 2.892h42.849c4.459 0 7.502-1.299 6.797-2.892l-5.288-12.001c-.662-1.498-4.669-2.706-8.957-2.706zM966.813 746.144h-41.197c-4.288 0-7.181 1.208-6.459 2.706l5.792 12.001c.77 1.593 5.01 2.892 9.471 2.892h42.846c4.459 0 7.279-1.299 6.306-2.892l-7.341-12.001c-.917-1.498-5.132-2.706-9.418-2.706zM1079.731 746.144h-77.892c-8.109 0-13.908 1.208-12.947 2.706l7.684 12.001c1.02 1.593 8.687 2.892 17.119 2.892h81.012c8.433 0 14.119-1.299 12.711-2.892l-10.616-12.001c-1.324-1.498-8.962-2.706-17.071-2.706zM1125.05 796.773h-75.002c-7.807 0-13.12 1.502-11.865 3.368l10.102 14.997c1.343 1.996 9.056 3.627 17.21 3.627h78.366c8.158 0 13.328-1.631 11.56-3.627l-13.26-14.997c-1.649-1.865-9.305-3.368-17.111-3.368zM1107.089 768.198h-59.066c-6.15 0-10.171 1.359-8.977 3.049l9.58 13.548c1.272 1.801 7.505 3.272 13.914 3.272h61.573c6.409 0 10.309-1.471 8.724-3.272l-11.932-13.548c-1.487-1.689-7.669-3.049-13.816-3.049zM377.168 768.297h-77.255c-3.884 0-8.417 1.571-10.141 3.527l-10.899 12.362c-1.829 2.077-.048 3.775 3.999 3.775h80.499c4.044 0 8.489-1.698 9.916-3.775l8.486-12.362c1.344-1.956-.723-3.527-4.605-3.527zM386.113 796.086H282.057c-5.23 0-11.002 1.733-12.91 3.884l-12.072 13.636c-2.031 2.297.736 4.173 6.195 4.173h108.673c5.459 0 11.076-1.876 12.531-4.173l8.647-13.636c1.363-2.152-1.776-3.884-7.008-3.884zM752.133 827.133H434.774c-6.47 0-12.889 2.162-14.353 4.852l-8.033 14.79c-1.564 2.874 2.653 5.227 9.434 5.227h332.524c6.781 0 12.014-2.353 11.693-5.227l-1.649-14.79c-.303-2.69-5.788-4.852-12.257-4.852z" class="color9FA6D1 svgShape"/><path fill="#ffffff" d="M359.926 739.102h-41.44c-4.314 0-8.879 1.221-10.209 2.739l-10.623 12.144c-1.41 1.611 1.076 2.924 5.561 2.924h43.098c4.486 0 9.105-1.314 10.308-2.924l9.07-12.144c1.131-1.517-1.45-2.739-5.765-2.739zM297.305 821.022h-49.06c-5.106 0-10.746 1.714-12.609 3.844l-15 17.143c-2 2.287.703 4.157 6.051 4.157h51.399c5.351 0 11.082-1.869 12.79-4.157l12.805-17.143c1.589-2.13-1.27-3.844-6.376-3.844zM379.171 821.022h-49.059c-5.107 0-10.48 1.714-12.013 3.844L305.76 842.01c-1.647 2.287 1.345 4.157 6.695 4.157h51.398c5.351 0 10.793-1.869 12.144-4.157l10.145-17.143c1.261-2.131-1.865-3.845-6.971-3.845zM841.742 821.022H792.68c-5.106 0-8.977 1.714-8.641 3.844l2.692 17.143c.361 2.287 4.989 4.157 10.339 4.157h51.399c5.351 0 9.153-1.869 8.502-4.157l-4.889-17.143c-.607-2.13-5.236-3.844-10.34-3.844zM925.843 821.022h-49.059c-5.106 0-8.703 1.714-8.03 3.844l5.426 17.143c.723 2.287 5.654 4.157 11.002 4.157h51.398c5.351 0 8.856-1.869 7.839-4.157l-7.619-17.143c-.95-2.13-5.849-3.844-10.957-3.844zM1009.948 821.022h-49.06c-5.106 0-8.429 1.714-7.417 3.844l8.158 17.143c1.09 2.287 6.316 4.157 11.665 4.157h51.398c5.348 0 8.558-1.869 7.177-4.157l-10.355-17.143c-1.284-2.13-6.46-3.844-11.566-3.844zM1147.047 821.022h-95.441c-9.933 0-16.905 1.714-15.56 3.844l10.823 17.143c1.443 2.287 11.059 4.157 21.468 4.157h99.987c10.407 0 17.198-1.869 15.184-4.157l-15.092-17.143c-1.874-2.13-11.436-3.844-21.369-3.844zM435.504 739.102h-41.442c-4.312 0-8.671 1.221-9.741 2.739l-8.564 12.144c-1.139 1.611 1.57 2.924 6.056 2.924h43.099c4.485 0 8.88-1.314 9.81-2.924l7.012-12.144c.875-1.517-1.916-2.739-6.23-2.739zM446.737 761.715h-43.966c-4.577 0-9.189 1.375-10.309 3.086l-8.993 13.697c-1.197 1.821 1.695 3.307 6.464 3.307h45.828c4.769 0 9.42-1.486 10.383-3.307l7.248-13.697c.901-1.71-2.079-3.086-6.655-3.086zM527.717 761.715h-43.964c-4.576 0-8.954 1.375-9.785 3.086l-6.656 13.697c-.884 1.821 2.26 3.307 7.029 3.307h45.825c4.771 0 9.169-1.486 9.821-3.307l4.91-13.697c.614-1.71-2.604-3.086-7.18-3.086zM608.699 761.715h-43.964c-4.577 0-8.72 1.375-9.258 3.086l-4.318 13.697c-.576 1.821 2.823 3.307 7.594 3.307h45.825c4.768 0 8.914-1.486 9.255-3.307l2.572-13.697c.321-1.71-3.131-3.086-7.706-3.086zM689.679 761.715h-43.964c-4.576 0-8.483 1.375-8.731 3.086l-1.981 13.697c-.266 1.821 3.388 3.307 8.155 3.307h45.827c4.77 0 8.661-1.486 8.693-3.307l.234-13.697c.031-1.71-3.656-3.086-8.233-3.086zM770.663 761.715h-43.967c-4.577 0-8.25 1.375-8.205 3.086l.356 13.697c.049 1.821 3.953 3.307 8.721 3.307h45.826c4.771 0 8.408-1.486 8.129-3.307l-2.103-13.697c-.263-1.71-4.182-3.086-8.757-3.086zM851.642 761.715h-43.965c-4.575 0-8.015 1.375-7.679 3.086l2.693 13.697c.358 1.821 4.517 3.307 9.287 3.307h45.826c4.77 0 8.154-1.486 7.564-3.307l-4.443-13.697c-.551-1.71-4.706-3.086-9.283-3.086zM932.623 761.715h-43.967c-4.574 0-7.778 1.375-7.15 3.086l5.03 13.697c.67 1.821 5.081 3.307 9.852 3.307h45.824c4.768 0 7.901-1.486 7-3.307l-6.776-13.697c-.848-1.71-5.237-3.086-9.813-3.086zM1013.603 761.715H969.64c-4.577 0-7.547 1.375-6.628 3.086l7.369 13.697c.978 1.821 5.644 3.307 10.415 3.307h45.825c4.77 0 7.647-1.486 6.436-3.307l-9.115-13.697c-1.138-1.71-5.762-3.086-10.339-3.086zM457.494 790.32h-46.206c-4.81 0-9.619 1.519-10.749 3.408l-9.096 15.165c-1.21 2.02 1.873 3.667 6.896 3.667h48.274c5.023 0 9.875-1.647 10.828-3.667l7.153-15.165c.892-1.889-2.292-3.408-7.1-3.408zM536.282 790.32h-46.207c-4.808 0-9.376 1.519-10.211 3.408l-6.69 15.165c-.891 2.02 2.456 3.667 7.479 3.667h48.275c5.022 0 9.611-1.647 10.244-3.667l4.75-15.165c.59-1.889-2.832-3.408-7.64-3.408zM615.069 790.32h-46.205c-4.81 0-9.138 1.519-9.67 3.408l-4.286 15.165c-.57 2.02 3.035 3.667 8.06 3.667h48.273c5.023 0 9.353-1.647 9.664-3.667l2.344-15.165c.294-1.889-3.372-3.408-8.18-3.408zM693.855 790.32h-46.204c-4.809 0-8.895 1.519-9.13 3.408l-1.882 15.165c-.249 2.02 3.619 3.667 8.643 3.667h48.273c5.024 0 9.091-1.647 9.081-3.667l-.06-15.165c-.005-1.889-3.91-3.408-8.721-3.408zM772.644 790.32h-46.206c-4.808 0-8.653 1.519-8.589 3.408l.524 15.165c.068 2.02 4.199 3.667 9.223 3.667h48.274c5.025 0 8.828-1.647 8.5-3.667l-2.465-15.165c-.306-1.889-4.451-3.408-9.261-3.408zM851.433 790.32h-46.207c-4.809 0-8.414 1.519-8.05 3.408l2.929 15.165c.389 2.02 4.781 3.667 9.804 3.667h48.275c5.023 0 8.568-1.647 7.918-3.667l-4.87-15.165c-.605-1.889-4.992-3.408-9.799-3.408zM930.219 790.32h-46.204c-4.81 0-8.175 1.519-7.511 3.408l5.332 15.165c.711 2.02 5.364 3.667 10.388 3.667h48.273c5.024 0 8.307-1.647 7.338-3.667l-7.276-15.165c-.904-1.889-5.531-3.408-10.34-3.408zM1009.006 790.32h-46.205c-4.807 0-7.933 1.519-6.968 3.408l7.738 15.165c1.03 2.02 5.945 3.667 10.967 3.667h48.274c5.023 0 8.043-1.647 6.757-3.667l-9.681-15.165c-1.204-1.889-6.073-3.408-10.882-3.408zM511.082 739.102h-41.441c-4.315 0-8.465 1.221-9.279 2.739l-6.504 12.144c-.865 1.611 2.067 2.924 6.554 2.924h43.097c4.486 0 8.657-1.314 9.315-2.924l4.952-12.144c.619-1.517-2.381-2.739-6.694-2.739zM586.661 739.102h-41.442c-4.313 0-8.257 1.221-8.812 2.739l-4.448 12.144c-.588 1.611 2.566 2.924 7.05 2.924h43.099c4.485 0 8.436-1.314 8.818-2.924l2.892-12.144c.362-1.517-2.843-2.739-7.157-2.739zM662.239 739.102h-41.442c-4.313 0-8.049 1.221-8.348 2.739l-2.387 12.144c-.317 1.611 3.061 2.924 7.549 2.924h43.099c4.483 0 8.209-1.314 8.319-2.924l.833-12.144c.105-1.517-3.311-2.739-7.623-2.739zM737.818 739.102h-41.441c-4.314 0-7.845 1.221-7.884 2.739l-.33 12.144c-.042 1.611 3.56 2.924 8.044 2.924h43.099c4.485 0 7.989-1.314 7.826-2.924l-1.227-12.144c-.155-1.517-3.773-2.739-8.087-2.739zM813.396 739.102h-41.442c-4.311 0-7.635 1.221-7.418 2.739l1.731 12.144c.231 1.611 4.054 2.924 8.541 2.924h43.098c4.485 0 7.764-1.314 7.328-2.924l-3.287-12.144c-.41-1.517-4.237-2.739-8.551-2.739zM888.975 739.102h-41.443c-4.312 0-7.426 1.221-6.953 2.739l3.793 12.144c.501 1.611 4.548 2.924 9.033 2.924h43.099c4.485 0 7.543-1.314 6.833-2.924l-5.346-12.144c-.668-1.517-4.705-2.739-9.016-2.739zM964.553 739.102h-41.441c-4.314 0-7.223 1.221-6.49 2.739l5.851 12.144c.776 1.611 5.046 2.924 9.531 2.924h43.099c4.486 0 7.319-1.314 6.337-2.924l-7.407-12.144c-.926-1.517-5.166-2.739-9.48-2.739zM1078.144 739.102h-78.357c-8.154 0-13.985 1.221-13.017 2.739l7.752 12.144c1.027 1.611 8.742 2.924 17.222 2.924h81.488c8.48 0 14.2-1.314 12.78-2.924l-10.693-12.144c-1.332-1.517-9.02-2.739-17.175-2.739zM1123.788 790.32h-75.427c-7.852 0-13.195 1.519-11.928 3.408l10.18 15.165c1.356 2.02 9.112 3.667 17.313 3.667h78.804c8.202 0 13.399-1.647 11.622-3.667l-13.35-15.165c-1.661-1.889-9.364-3.408-17.214-3.408zM1102.339 761.715h-53.241c-5.54 0-9.133 1.375-8.017 3.086l8.95 13.697c1.19 1.821 6.842 3.307 12.617 3.307h55.495c5.777 0 9.256-1.486 7.786-3.307l-11.066-13.697c-1.38-1.71-6.982-3.086-12.524-3.086zM375.524 761.816h-77.686c-3.903 0-8.461 1.591-10.192 3.569l-10.934 12.498c-1.838 2.1-.04 3.815 4.027 3.815h80.94c4.068 0 8.535-1.715 9.965-3.815l8.518-12.498c1.348-1.978-.733-3.569-4.638-3.569zM380.643 789.626H275.992c-5.26 0-11.056 1.752-12.962 3.93l-12.066 13.791c-2.029 2.321.763 4.218 6.254 4.218h109.279c5.491 0 11.129-1.897 12.581-4.218l8.629-13.791c1.363-2.179-1.804-3.93-7.064-3.93zM748.841 821.022H429.724c-6.507 0-12.952 2.186-14.409 4.907l-8.011 14.953c-1.557 2.905 2.696 5.284 9.511 5.284h334.323c6.818 0 12.073-2.379 11.742-5.284l-1.703-14.953c-.309-2.721-5.832-4.907-12.336-4.907z" class="colorFFF svgShape"/><path fill="#999999" d="M677.809 158.062c0-8.532 6.917-15.448 15.446-15.448 8.532 0 15.449 6.916 15.449 15.448s-6.917 15.447-15.449 15.447c-8.529 0-15.446-6.915-15.446-15.447z" class="color999 svgShape"/><path fill="#797ea3" d="M1116.418 728.431H270.094a9.559 9.559 0 0 1-9.559-9.559c0-5.279 4.28-9.56 9.559-9.56h846.324c5.279 0 9.557 4.281 9.557 9.56 0 5.28-4.278 9.559-9.557 9.559z" class="color797EA3 svgShape"/><path fill="#4d5275" d="M1109.834 134.16H272.057c-6.885 0-12.476 5.591-12.476 12.476v550.2c0 6.885 5.591 12.463 12.476 12.463h837.777c6.885 0 12.476-5.578 12.476-12.463v-550.2c0-6.885-5.591-12.476-12.476-12.476zm6.691 545.451c0 7.377-6.096 13.357-13.615 13.357H281.583c-7.519 0-13.628-5.979-13.628-13.357V193.306c0-7.377 6.109-13.356 13.628-13.356h821.327c7.52 0 13.615 5.979 13.615 13.356v486.305z" class="color4D5275 svgShape"/><path fill="#ffffff" d="M727.394 158.062c0 8.762-7.107 15.88-15.881 15.88-8.775 0-15.882-7.118-15.882-15.88 0-8.775 7.107-15.882 15.882-15.882 8.774 0 15.881 7.107 15.881 15.882z" class="colorFFF svgShape"/><path fill="#4d5275" d="M700.227 158.057c0-6.233 5.053-11.285 11.284-11.285 6.233 0 11.285 5.053 11.285 11.285s-5.053 11.283-11.285 11.283c-6.232.001-11.284-5.051-11.284-11.283z" class="color4D5275 svgShape"/><path fill="#ffffff" d="M706.136 153.645a2.687 2.687 0 1 1 5.374 0 2.687 2.687 0 0 1-5.374 0z" class="colorFFF svgShape"/><path fill="#ffc45c" d="m622.598 134.16-80.747 45.79-273.896 155.333-8.374 4.749v-62.899l8.374-4.75 162.994-92.433 80.747-45.79z" class="colorFFC45C svgShape"/><path fill="#ffffff" d="m282.799 268.384-14.844 39.474-8.374 22.26v-42.67l2.834-7.507 5.54-3.145zM334.241 239.214l-25.521 68.532-20.787 11.789 25.649-68.606zM386.37 209.65 361.172 278l-21.061 11.944 25.319-68.419zM439.194 179.692l-24.862 68.159-21.349 12.108 24.997-68.236zM492.75 149.319l-24.544 67.98-21.641 12.273 24.679-68.056zM541.45 134.16l-16.372 45.79-2.278 6.38-21.924 12.438 6.756-18.818 16.436-45.79zM579.979 134.16l-9.551 25.16-20.242 11.48 13.964-36.64zM614.819 134.16l-13.809 7.83 2.951-7.83z" class="colorFFF svgShape"/><path fill="#e3e5f2" d="M896.11 244.586h163.799v182.956H896.11zM319.781 547.553h112.744v112.744H319.781z" class="colorE3E5F2 svgShape"/><path fill="#f5895b" d="M440.14 287.407h543.479v334.366H440.14z" class="colorF5895B svgShape"/><path fill="#ffffff" d="M956.156 595.556H467.603V313.624h488.553v281.932zm-481.473-6.986h474.392V320.611H474.683V588.57z" class="colorFFF svgShape"/><path fill="#ffffff" d="M607.521 354.197h15.659v30.257c0 3-.467 5.833-1.403 8.498a18.344 18.344 0 0 1-4.4 6.993c-1.998 1.997-4.094 3.398-6.287 4.206-3.048 1.13-6.71 1.697-10.981 1.697-2.471 0-5.167-.174-8.09-.519-2.921-.347-5.364-1.033-7.327-2.061-1.963-1.027-3.758-2.487-5.386-4.379-1.628-1.892-2.742-3.842-3.343-5.85-.97-3.231-1.455-6.093-1.455-8.585v-30.257h15.658v30.978c0 2.769.768 4.933 2.304 6.49 1.535 1.558 3.666 2.336 6.392 2.336 2.702 0 4.82-.768 6.357-2.302 1.535-1.534 2.303-3.709 2.303-6.524v-30.978zM633.675 354.197h14.653l19.123 28.097v-28.097h14.791v50.785h-14.791l-19.019-27.885v27.885h-14.757v-50.785zM692.879 354.197h23.314c4.595 0 8.308.624 11.138 1.871 2.828 1.247 5.166 3.037 7.015 5.37 1.847 2.332 3.187 5.046 4.018 8.14.831 3.095 1.247 6.374 1.247 9.839 0 5.427-.618 9.636-1.853 12.626-1.236 2.992-2.95 5.497-5.144 7.517-2.195 2.021-4.55 3.366-7.068 4.036-3.441.924-6.559 1.386-9.353 1.386h-23.314v-50.785zm15.693 11.502v27.748h3.845c3.279 0 5.611-.364 6.997-1.091 1.386-.728 2.471-1.997 3.257-3.81.785-1.813 1.178-4.752 1.178-8.817 0-5.381-.878-9.064-2.634-11.051-1.755-1.985-4.665-2.979-8.729-2.979h-3.914zM747.82 354.197h42.055v10.843h-26.328v8.072h24.423v10.357h-24.423v10.011h27.09v11.502H747.82v-50.785zM799.298 404.983v-50.785h26.155c4.85 0 8.556.416 11.12 1.248 2.563.831 4.63 2.372 6.2 4.625 1.571 2.251 2.356 4.994 2.356 8.227 0 2.817-.6 5.248-1.802 7.292-1.202 2.044-2.855 3.701-4.956 4.972-1.341.808-3.177 1.478-5.512 2.009 1.869.625 3.231 1.249 4.085 1.873.577.416 1.413 1.306 2.51 2.67 1.096 1.364 1.829 2.415 2.198 3.155l7.6 14.716H831.52l-8.389-15.52c-1.062-2.009-2.009-3.313-2.84-3.915-1.132-.784-2.414-1.177-3.845-1.177h-1.386v20.612h-15.762zm15.763-30.208h6.617c.715 0 2.101-.231 4.156-.693 1.04-.207 1.888-.738 2.547-1.593.658-.855.988-1.837.988-2.945 0-1.64-.52-2.898-1.56-3.776-1.039-.877-2.991-1.316-5.854-1.316h-6.893v10.323zM568.004 506.44l-65.051 55.918h-3.196v-29.322l30.935-26.596zM643.912 506.44l-65.051 55.918h-37.298l65.036-55.918zM719.82 506.44l-65.051 55.918H617.47l65.037-55.918zM795.727 506.44l-65.051 55.918h-37.298l65.036-55.918zM871.635 506.44l-65.051 55.918h-37.299l65.037-55.918zM924.003 506.44v20.234l-41.512 35.684h-37.298l65.036-55.918zM870.614 300.425c0 5.037-4.066 9.138-9.102 9.138-5.037 0-9.139-4.102-9.139-9.138a9.053 9.053 0 0 1 4.21-7.664h.036c1.403-.935 3.094-1.439 4.893-1.439 1.403 0 2.77.324 3.957.899h.036a9.133 9.133 0 0 1 5.109 8.204zM571.386 300.425c0 5.037-4.102 9.138-9.139 9.138-5.037 0-9.102-4.102-9.102-9.138 0-3.418 1.871-6.368 4.641-7.951a9.34 9.34 0 0 1 4.461-1.151c1.943 0 3.742.611 5.217 1.655h.036a9.052 9.052 0 0 1 3.886 7.447z" class="colorFFF svgShape"/><path fill="#abb2db" d="M568.753 298.047c-1.85 0-3.448-.518-4.621-1.6-1.173-1.083-1.793-2.617-1.793-4.435 0-3.755 2.694-8.575 7.03-12.578 6.625-6.115 14.365-8.194 18.003-4.835 1.173 1.082 1.793 2.616 1.793 4.435 0 3.754-2.694 8.575-7.03 12.578-4.49 4.145-9.492 6.435-13.382 6.435zm14.042-21.456c-2.724 0-7.064 1.867-10.986 5.487-3.567 3.293-5.873 7.193-5.873 9.934 0 .799.214 1.402.635 1.791 1.864 1.716 7.868.016 13.123-4.835l1.22 1.322-1.22-1.322c3.568-3.294 5.873-7.193 5.873-9.934 0-.799-.213-1.402-.635-1.791-.472-.436-1.211-.652-2.137-.652z" class="colorABB2DB svgShape"/><path fill="#abb2db" d="M586.758 281.423c-1.85 0-3.448-.517-4.621-1.6-1.173-1.083-1.793-2.617-1.793-4.436.001-3.755 2.694-8.574 7.03-12.576 6.623-6.114 14.363-8.196 18.003-4.835 1.173 1.082 1.793 2.616 1.793 4.435 0 3.755-2.694 8.575-7.03 12.577-4.488 4.145-9.491 6.435-13.382 6.435zm14.042-21.455c-2.724 0-7.064 1.867-10.985 5.487-3.567 3.293-5.872 7.192-5.873 9.933 0 .799.214 1.402.635 1.791 1.864 1.719 7.869.016 13.123-4.835 3.568-3.293 5.873-7.192 5.873-9.933 0-.799-.213-1.402-.635-1.791-.473-.437-1.211-.652-2.138-.652z" class="colorABB2DB svgShape"/><path fill="#abb2db" d="M604.763 264.8c-1.85 0-3.448-.518-4.62-1.6-1.173-1.082-1.792-2.616-1.792-4.434 0-3.755 2.693-8.575 7.03-12.579 6.626-6.115 14.365-8.193 18.004-4.835 1.173 1.083 1.792 2.616 1.792 4.435 0 3.755-2.693 8.574-7.03 12.577l-1.22-1.322 1.22 1.322c-4.491 4.145-9.493 6.436-13.384 6.436zm14.044-21.456c-2.724 0-7.065 1.867-10.987 5.487-3.567 3.294-5.872 7.194-5.872 9.935 0 .799.213 1.402.634 1.79 1.864 1.718 7.868.015 13.124-4.836 3.567-3.293 5.872-7.193 5.872-9.933 0-.8-.213-1.403-.634-1.791-.472-.436-1.211-.652-2.137-.652z" class="colorABB2DB svgShape"/><path fill="#abb2db" d="M622.769 248.176c-1.85 0-3.448-.518-4.62-1.6-1.173-1.083-1.792-2.616-1.792-4.435 0-3.755 2.693-8.574 7.03-12.577 6.626-6.116 14.365-8.196 18.004-4.836 1.173 1.083 1.793 2.617 1.792 4.436 0 3.754-2.693 8.574-7.03 12.577-4.491 4.145-9.493 6.435-13.384 6.435zm14.044-21.456c-2.723 0-7.065 1.867-10.987 5.488-3.567 3.293-5.872 7.193-5.872 9.933 0 .8.213 1.403.634 1.791 1.864 1.718 7.868.016 13.124-4.835 3.567-3.294 5.872-7.193 5.872-9.934 0-.799-.213-1.402-.635-1.792-.472-.436-1.21-.651-2.136-.651z" class="colorABB2DB svgShape"/><path fill="#abb2db" d="M640.775 231.553c-1.85 0-3.448-.517-4.621-1.6-1.173-1.082-1.792-2.616-1.792-4.434 0-3.755 2.693-8.575 7.03-12.579 6.626-6.115 14.365-8.195 18.004-4.835 1.173 1.083 1.792 2.616 1.792 4.435 0 3.755-2.693 8.574-7.03 12.577-4.489 4.145-9.492 6.436-13.383 6.436zm14.044-21.457c-2.724 0-7.065 1.867-10.987 5.487-3.567 3.294-5.872 7.194-5.872 9.935 0 .799.213 1.402.634 1.79 1.864 1.717 7.869.016 13.124-4.836 3.567-3.293 5.872-7.193 5.872-9.933 0-.8-.213-1.403-.634-1.791-.473-.435-1.212-.652-2.137-.652z" class="colorABB2DB svgShape"/><path fill="#abb2db" d="M658.782 214.929c-1.85 0-3.448-.518-4.621-1.6-1.173-1.082-1.793-2.616-1.793-4.435 0-3.755 2.694-8.575 7.03-12.577 6.625-6.118 14.366-8.192 18.003-4.836 1.173 1.083 1.793 2.617 1.793 4.435 0 3.755-2.694 8.575-7.03 12.578-4.49 4.144-9.492 6.435-13.382 6.435zm14.042-21.457c-2.724 0-7.064 1.867-10.986 5.488-3.568 3.293-5.873 7.192-5.873 9.933 0 .799.213 1.402.635 1.791 1.863 1.717 7.868.016 13.123-4.835l1.22 1.322-1.22-1.322c3.567-3.293 5.873-7.193 5.873-9.934 0-.799-.214-1.402-.635-1.791-.472-.435-1.211-.652-2.137-.652z" class="colorABB2DB svgShape"/><path fill="#abb2db" d="M676.787 198.306c-1.85 0-3.448-.518-4.622-1.602-1.172-1.082-1.792-2.615-1.792-4.434 0-3.754 2.694-8.574 7.03-12.577 6.625-6.117 14.366-8.194 18.003-4.835 1.173 1.082 1.793 2.616 1.793 4.435 0 3.755-2.694 8.575-7.03 12.577-4.489 4.144-9.491 6.436-13.382 6.436zm14.043-21.457c-2.724 0-7.064 1.867-10.986 5.487-3.567 3.293-5.873 7.193-5.873 9.933 0 .799.214 1.402.635 1.791 1.863 1.721 7.868.016 13.123-4.835 3.568-3.293 5.873-7.192 5.873-9.933 0-.799-.213-1.402-.635-1.791-.473-.436-1.211-.652-2.137-.652z" class="colorABB2DB svgShape"/><path fill="#abb2db" d="M694.792 181.682c-1.85 0-3.448-.518-4.62-1.6-1.173-1.083-1.793-2.617-1.793-4.436.001-3.755 2.694-8.574 7.03-12.576 6.624-6.115 14.366-8.198 18.004-4.836 1.173 1.082 1.792 2.616 1.792 4.434 0 3.755-2.693 8.575-7.03 12.579-4.489 4.144-9.492 6.435-13.383 6.435zm14.044-21.457c-2.724 0-7.066 1.867-10.987 5.488-3.567 3.293-5.872 7.192-5.873 9.933 0 .799.214 1.402.635 1.791 1.863 1.716 7.868.016 13.124-4.835 3.567-3.294 5.872-7.194 5.872-9.935 0-.799-.213-1.402-.634-1.79-.472-.436-1.211-.652-2.137-.652zM855.634 298.047c-3.89 0-8.892-2.291-13.382-6.436-4.336-4.004-7.03-8.824-7.03-12.578 0-1.819.62-3.353 1.793-4.435 3.639-3.359 11.377-1.28 18.003 4.835 4.336 4.004 7.03 8.823 7.03 12.578 0 1.818-.62 3.352-1.793 4.435-1.173 1.083-2.771 1.601-4.621 1.601zm-10.942-9.079c5.253 4.851 11.262 6.556 13.123 4.835.421-.389.635-.992.635-1.791 0-2.741-2.306-6.641-5.873-9.934-5.253-4.851-11.26-6.553-13.123-4.835-.422.389-.635.992-.635 1.791 0 2.741 2.305 6.64 5.873 9.934z" class="colorABB2DB svgShape"/><path fill="#abb2db" d="M837.628 281.423c-3.891 0-8.893-2.291-13.382-6.436-4.336-4.003-7.03-8.822-7.03-12.577 0-1.819.62-3.353 1.793-4.435 3.641-3.357 11.381-1.28 18.003 4.835 4.337 4.003 7.03 8.821 7.03 12.576 0 1.819-.62 3.353-1.793 4.436-1.173 1.084-2.771 1.601-4.621 1.601zm-14.042-21.455c-.927 0-1.665.215-2.138.652-.422.389-.635.992-.635 1.791 0 2.741 2.305 6.64 5.873 9.933 5.255 4.853 11.262 6.556 13.123 4.835.421-.389.635-.992.635-1.791-.001-2.741-2.306-6.64-5.873-9.933-3.921-3.621-8.261-5.487-10.985-5.487z" class="colorABB2DB svgShape"/><path fill="#abb2db" d="M819.623 264.8c-3.891 0-8.893-2.291-13.384-6.437-4.336-4.004-7.03-8.822-7.03-12.577 0-1.819.619-3.352 1.792-4.435 3.637-3.359 11.378-1.282 18.004 4.835 4.336 4.004 7.03 8.824 7.03 12.579 0 1.818-.619 3.352-1.792 4.434-1.172 1.083-2.771 1.601-4.62 1.601zm-14.044-21.456c-.926 0-1.664.216-2.137.652-.421.388-.634.991-.634 1.791 0 2.741 2.305 6.64 5.872 9.933 5.256 4.851 11.262 6.56 13.124 4.836.421-.388.634-.991.634-1.79 0-2.741-2.305-6.641-5.872-9.935-3.921-3.62-8.263-5.487-10.987-5.487z" class="colorABB2DB svgShape"/><path fill="#abb2db" d="M801.618 248.176c-3.891 0-8.893-2.291-13.384-6.436-4.336-4.004-7.03-8.823-7.03-12.577-.001-1.819.619-3.353 1.791-4.435 3.643-3.362 11.381-1.28 18.005 4.835 4.336 4.004 7.03 8.822 7.03 12.577 0 1.819-.619 3.352-1.792 4.435-1.172 1.083-2.772 1.601-4.62 1.601zm-10.944-9.079c5.254 4.85 11.262 6.559 13.124 4.835.421-.388.634-.991.634-1.791 0-2.741-2.305-6.64-5.872-9.933-5.254-4.85-11.261-6.556-13.124-4.836-.421.389-.634.992-.634 1.791 0 2.741 2.305 6.64 5.872 9.934z" class="colorABB2DB svgShape"/><path fill="#abb2db" d="M783.611 231.553c-3.891 0-8.893-2.291-13.383-6.437-4.337-4.004-7.03-8.822-7.03-12.577 0-1.819.619-3.352 1.792-4.435 3.639-3.358 11.379-1.279 18.004 4.835 4.336 4.004 7.03 8.824 7.03 12.579 0 1.818-.619 3.352-1.792 4.434-1.173 1.083-2.771 1.601-4.621 1.601zm-14.043-21.457c-.926 0-1.665.215-2.137.652-.421.388-.634.991-.634 1.791 0 2.74 2.305 6.64 5.872 9.933 5.254 4.851 11.259 6.553 13.124 4.836.421-.388.634-.991.634-1.79 0-2.741-2.305-6.641-5.872-9.935-3.923-3.619-8.263-5.487-10.987-5.487z" class="colorABB2DB svgShape"/><path fill="#abb2db" d="M765.604 214.929c-3.89 0-8.892-2.291-13.382-6.436-4.336-4.004-7.03-8.823-7.03-12.578 0-1.818.62-3.352 1.793-4.435 3.638-3.358 11.378-1.282 18.003 4.836 4.336 4.003 7.03 8.822 7.03 12.577 0 1.819-.62 3.353-1.793 4.435-1.172 1.083-2.771 1.601-4.621 1.601zm-10.941-9.079c5.255 4.852 11.262 6.557 13.123 4.835.422-.389.635-.992.635-1.791 0-2.741-2.305-6.64-5.873-9.933-5.253-4.851-11.26-6.557-13.123-4.836-.421.389-.635.992-.635 1.791 0 2.741 2.306 6.641 5.873 9.934z" class="colorABB2DB svgShape"/><path fill="#abb2db" d="M747.599 198.306c-3.89 0-8.893-2.291-13.382-6.437-4.336-4.003-7.03-8.822-7.03-12.577 0-1.819.62-3.353 1.793-4.435 3.639-3.359 11.378-1.282 18.003 4.835 4.336 4.004 7.03 8.823 7.03 12.577 0 1.819-.62 3.352-1.793 4.435-1.173 1.084-2.771 1.602-4.621 1.602zm-14.043-21.457c-.926 0-1.664.215-2.137.652-.422.389-.635.992-.635 1.791 0 2.741 2.305 6.64 5.873 9.933 5.256 4.853 11.266 6.557 13.122 4.835.422-.389.636-.992.636-1.791 0-2.741-2.306-6.64-5.873-9.933-3.921-3.62-8.262-5.487-10.986-5.487z" class="colorABB2DB svgShape"/><path fill="#abb2db" d="M729.594 181.682c-3.891 0-8.893-2.291-13.384-6.436-4.336-4.004-7.03-8.824-7.03-12.579 0-1.818.62-3.352 1.793-4.434 3.642-3.36 11.379-1.278 18.003 4.836 4.337 4.003 7.03 8.821 7.03 12.576 0 1.819-.62 3.353-1.793 4.436-1.171 1.083-2.77 1.601-4.619 1.601zm-10.944-9.08c5.256 4.85 11.263 6.556 13.124 4.835.421-.389.635-.992.635-1.791-.001-2.741-2.306-6.64-5.873-9.933-5.254-4.85-11.26-6.555-13.123-4.836-.422.389-.635.992-.635 1.791.001 2.741 2.305 6.641 5.872 9.934z" class="colorABB2DB svgShape"/><path fill="#f5895b" d="m568.652 287.401-1.151 5.577h-.036a9.003 9.003 0 0 0-5.217-1.655 9.34 9.34 0 0 0-4.461 1.151l-.971-5.073h11.836zM866.225 287.401l-.72 4.821h-.036a9.12 9.12 0 0 0-3.957-.899c-1.799 0-3.49.503-4.893 1.439h-.036l-2.663-5.361h12.305z" class="colorF5895B svgShape"/><circle cx="711.88" cy="165.594" r="27.333" fill="#abb2db" class="colorABB2DB svgShape"/><path fill="#4d5275" d="m711.985 182.486 5.584-17.12-5.584-16.782v-.634l-.105.317-.105-.317v.634l-5.584 16.782 5.584 17.12v.646l.105-.323.105.323z" class="color4D5275 svgShape"/><path fill="#ffffff" d="M504.107 478.943v-41.956h8.357l9.931 29.706a305.686 305.686 0 0 1 2.003 6.21c.477-1.525 1.221-3.768 2.233-6.725l10.045-29.191h7.469v41.956h-5.352v-35.116l-12.192 35.116h-5.008l-12.134-35.717v35.717h-5.352zM548.496 478.943l16.112-41.956h5.981l17.172 41.956h-6.325l-4.894-12.707h-17.543l-4.608 12.707h-5.895zm12.105-17.229h14.224l-4.379-11.619c-1.336-3.53-2.328-6.43-2.977-8.701a53.41 53.41 0 0 1-2.261 8.014l-4.607 12.306zM593.142 478.943v-41.956h5.552v41.956h-5.552zM608.424 478.943v-41.956h5.695l22.037 32.941v-32.941h5.323v41.956h-5.695l-22.037-32.969v32.969h-5.323zM661.485 478.943v-37.004h-13.823v-4.952h33.255v4.952h-13.88v37.004h-5.552zM686.726 478.943v-41.956h30.336v4.952h-24.784v12.849h23.21v4.923h-23.21v14.281h25.757v4.951h-31.309zM725.649 478.943v-41.956h5.695l22.037 32.941v-32.941h5.323v41.956h-5.695l-22.037-32.969v32.969h-5.323zM763.426 478.943l16.112-41.956h5.981l17.172 41.956h-6.325l-4.894-12.707h-17.543l-4.608 12.707h-5.895zm12.105-17.229h14.224l-4.379-11.619c-1.336-3.53-2.328-6.43-2.977-8.701a53.41 53.41 0 0 1-2.261 8.014l-4.607 12.306zM807.07 478.943v-41.956h5.695l22.037 32.941v-32.941h5.323v41.956h-5.695l-22.037-32.969v32.969h-5.323zM879.391 464.232l5.553 1.402c-1.164 4.561-3.258 8.037-6.282 10.431-3.024 2.395-6.721 3.592-11.09 3.592-4.522 0-8.2-.92-11.033-2.761-2.833-1.841-4.99-4.508-6.468-7.999-1.479-3.491-2.218-7.24-2.218-11.248 0-4.369.835-8.18 2.505-11.433 1.669-3.253 4.045-5.724 7.126-7.413 3.081-1.688 6.472-2.532 10.174-2.532 4.197 0 7.728 1.069 10.589 3.204 2.862 2.137 4.856 5.143 5.982 9.015l-5.466 1.288c-.973-3.053-2.385-5.276-4.236-6.668-1.851-1.392-4.179-2.089-6.983-2.089-3.225 0-5.92.772-8.085 2.317-2.166 1.546-3.687 3.621-4.565 6.225a25.046 25.046 0 0 0-1.317 8.056c0 3.568.52 6.683 1.56 9.344 1.039 2.662 2.656 4.652 4.851 5.967a13.6 13.6 0 0 0 7.126 1.976c3.109 0 5.742-.897 7.899-2.691 2.155-1.791 3.614-4.453 4.378-7.983zM891.898 478.943v-41.956h30.336v4.952H897.45v12.849h23.21v4.923h-23.21v14.281h25.757v4.951h-31.309z" class="colorFFF svgShape"/><path fill="#bcc1db" d="M1052.543 529.869h10.532v194.728h-10.532z" class="colorBCC1DB svgShape"/><path fill="#d94559" d="M1076.803 475.071h-37.989l-26.862 26.862v37.989l26.862 26.862h37.989l26.862-26.862v-37.989z" class="colorD94559 svgShape"/><path fill="#ffffff" d="M1074.28 560.693h-32.943l-23.294-23.294v-32.944l23.294-23.294h32.943l23.294 23.294v32.944l-23.294 23.294zm-32.121-1.985h31.298l22.131-22.131v-31.298l-22.131-22.132h-31.298l-22.132 22.132v31.298l22.132 22.131z" class="colorFFF svgShape"/><path fill="#4d5275" d="M1041.61 678.46h32.397v51.702h-32.397z" class="color4D5275 svgShape"/><path fill="#ffffff" d="M1057.068 494.91h-6.609v12.949l2.497 29.382h8.231l2.49-29.382V494.91zM1054.056 538.736h6.029v5.724h-6.029z" class="colorFFF svgShape"/><path fill="#ffc45c" d="M352.756 591.671h-2.883c-2.716 0-5.162 1.693-6.193 4.286L298.469 709.63H404.16l-45.211-113.673c-1.031-2.593-3.478-4.286-6.193-4.286z" class="colorFFC45C svgShape"/><path fill="#faa955" d="M358.949 595.956c-1.031-2.593-3.478-4.286-6.193-4.286h-2.883a6.511 6.511 0 0 0-3.363.956l22.219 55.866c10.351 26.025-8.822 54.283-36.829 54.283h-30.704l-2.726 6.854h105.69l-45.211-113.673z" class="colorFAA955 svgShape"/><path fill="#ffffff" d="M398.613 695.702h-94.597l5.49-13.818h83.617zM387.466 667.669h-72.303l5.49-13.817h61.324zM376.319 639.619H326.31l5.506-13.817h38.997zM365.156 611.587h-27.683l5.49-13.818h16.703z" class="colorFFF svgShape"/><path fill="#ffc45c" d="M420.277 728.924H282.351v-9.169c0-6.046 4.902-10.948 10.948-10.948h116.03c6.046 0 10.948 4.902 10.948 10.948v9.169zM478.841 638.441h-1.897c-1.787 0-3.396 1.114-4.075 2.819l-29.743 74.784h69.533l-29.743-74.784c-.678-1.705-2.288-2.819-4.075-2.819z" class="colorFFC45C svgShape"/><path fill="#faa955" d="M482.916 641.26c-.678-1.706-2.288-2.82-4.075-2.82h-1.897c-.797 0-1.553.232-2.213.629l14.618 36.754c6.81 17.121-5.804 35.712-24.23 35.712h-20.2l-1.793 4.509h69.533l-29.743-74.784z" class="colorFAA955 svgShape"/><path fill="#ffffff" d="M509.01 706.882h-62.234l3.612-9.091h55.011zM501.677 688.44H454.11l3.611-9.091h40.344zM494.344 669.986h-32.901l3.623-9.091h25.655zM486.999 651.543h-18.212l3.612-9.09h10.989z" class="colorFFF svgShape"/><path fill="#ffc45c" d="M523.263 728.738h-90.74v-2.287c0-6.046 4.902-10.948 10.948-10.948h68.844c6.046 0 10.948 4.902 10.948 10.948v2.287z" class="colorFFC45C svgShape"/><path fill="#4d90db" d="m212.326 271.865-2.719.77a36.919 36.919 0 0 0-6.605-8.834l1.616-2.893a8.966 8.966 0 0 0-15.655-8.743l-1.38 2.471a36.698 36.698 0 0 0-10.911-1.58h-.004l-.903-3.189a8.967 8.967 0 0 0-17.253 4.887l.77 2.72a36.915 36.915 0 0 0-8.834 6.604l-2.893-1.616a8.965 8.965 0 0 0-12.199 3.456 8.965 8.965 0 0 0 3.456 12.199l2.47 1.38a36.646 36.646 0 0 0-1.58 10.913v.003l-3.187.903a8.967 8.967 0 0 0 4.887 17.253l2.718-.77a36.904 36.904 0 0 0 6.605 8.835l-1.615 2.891a8.965 8.965 0 0 0 3.456 12.199 8.965 8.965 0 0 0 12.199-3.456l1.375-2.462.002.001a37.224 37.224 0 0 0 10.92 1.579l.901 3.18a8.967 8.967 0 0 0 17.253-4.887l-.77-2.717a36.882 36.882 0 0 0 8.835-6.606l2.892 1.615a8.966 8.966 0 0 0 8.743-15.655l-2.463-1.376v-.001a37.231 37.231 0 0 0 1.579-10.921l3.181-.901a8.967 8.967 0 0 0 6.183-11.07 8.967 8.967 0 0 0-11.07-6.182zm-9.778 11.078c4.017 14.181-4.228 28.943-18.409 32.961s-28.943-4.227-32.961-18.409c-4.02-14.19 4.228-28.943 18.409-32.961s28.942 4.219 32.961 18.409z" class="color4D90DB svgShape"/><path fill="#4d90db" d="M160.631 294.817c2.54 8.965 11.866 14.174 20.832 11.635 8.965-2.54 14.182-11.869 11.643-20.834-2.54-8.965-11.877-14.18-20.842-11.641-8.966 2.54-14.173 11.875-11.633 20.84z" class="color4D90DB svgShape"/><path fill="#3879c2" d="M195.638 248.707a8.965 8.965 0 0 1 3.455 12.199l-1.616 2.893c2.593 2.558 5.554 6.625 7.328 9.931 0 0 4.182-1.076 4.907-1.097-1.666-2.867-4.409-6.561-6.711-8.831l1.616-2.893a8.964 8.964 0 0 0-3.456-12.199 8.929 8.929 0 0 0-7.117-.697 8.86 8.86 0 0 1 1.594.694zM174.079 316.767c-10.532-1.11-19.838-8.463-22.9-19.272-4.02-14.19 4.227-28.943 18.409-32.961a26.827 26.827 0 0 1 4.541-.866 26.609 26.609 0 0 0-10.065.864c-14.181 4.017-22.429 18.771-18.409 32.961 3.589 12.67 15.757 20.593 28.424 19.274zM214.032 290.019l3.181-.901a8.967 8.967 0 0 0-4.887-17.253l-.327.093a8.965 8.965 0 0 1-.31 17.158l-3.181.901a37.231 37.231 0 0 1-1.579 10.921v.001l2.463 1.376a8.966 8.966 0 0 1 3.456 12.199 8.924 8.924 0 0 1-5.082 4.153 8.966 8.966 0 0 0 7.15-16.35l-2.463-1.376v-.001a37.236 37.236 0 0 0 1.579-10.921zM194.446 322.962a36.953 36.953 0 0 0 6.802-4.697c-.201-.094-.403-.186-.599-.296l-2.892-1.615a36.928 36.928 0 0 1-8.835 6.606l.77 2.717c1.321 4.662-1.307 9.499-5.885 10.969a8.967 8.967 0 0 0 11.409-10.967l-.77-2.717zM160.619 325.806l-.003-.001-1.375 2.462a8.92 8.92 0 0 1-5.082 4.153c3.993 1.306 8.48-.345 10.606-4.151l.754-1.349a37.197 37.197 0 0 1-4.9-1.114z" class="color3879C2 svgShape"/><path fill="#4d90db" d="m1244.928 156.761-3.398.963a46.111 46.111 0 0 0-8.253-11.038l2.019-3.615c3.017-5.402 1.084-12.226-4.318-15.243-5.402-3.017-12.226-1.084-15.243 4.318l-1.724 3.088a45.842 45.842 0 0 0-13.634-1.974h-.005l-1.129-3.984c-1.686-5.953-7.879-9.411-13.832-7.725s-9.412 7.879-7.725 13.832l.963 3.398a46.134 46.134 0 0 0-11.038 8.252l-3.615-2.019c-5.402-3.017-12.226-1.084-15.243 4.318-3.017 5.402-1.084 12.226 4.318 15.243l3.087 1.724a45.82 45.82 0 0 0-1.975 13.636v.003l-3.982 1.128c-5.953 1.686-9.411 7.879-7.725 13.832s7.879 9.412 13.832 7.725l3.396-.962a46.126 46.126 0 0 0 8.254 11.04l-2.018 3.613c-3.017 5.402-1.084 12.226 4.318 15.243 5.402 3.017 12.226 1.084 15.243-4.318l1.718-3.076.003.001a46.537 46.537 0 0 0 13.645 1.973l1.125 3.973c1.686 5.953 7.879 9.412 13.832 7.725 5.953-1.686 9.411-7.879 7.725-13.832l-.962-3.395a46.126 46.126 0 0 0 11.04-8.254l3.613 2.018c5.402 3.017 12.226 1.084 15.243-4.318 3.017-5.402 1.083-12.226-4.318-15.243l-3.078-1.719v-.001a46.51 46.51 0 0 0 1.973-13.646l3.975-1.126c5.953-1.686 9.411-7.879 7.725-13.832s-7.879-9.412-13.832-7.726zm-12.217 13.842c5.02 17.72-5.282 36.165-23.002 41.184-17.72 5.02-36.165-5.282-41.184-23.002-5.022-17.73 5.282-36.165 23.002-41.185 17.719-5.019 36.162 5.273 41.184 23.003z" class="color4D90DB svgShape"/><path fill="#4d90db" d="M1180.335 185.44c3.173 11.202 14.827 17.711 26.029 14.538 11.202-3.173 17.721-14.83 14.548-26.032s-14.84-17.718-26.042-14.545c-11.203 3.173-17.709 14.836-14.535 26.039z" class="color4D90DB svgShape"/><path fill="#3879c2" d="M1224.076 127.825c5.402 3.017 7.335 9.841 4.318 15.243l-2.019 3.615c3.24 3.196 6.94 8.278 9.156 12.409 0 0 5.225-1.345 6.131-1.371-2.081-3.582-5.509-8.198-8.385-11.035l2.019-3.615c3.017-5.402 1.084-12.226-4.318-15.243a11.16 11.16 0 0 0-8.893-.871c.678.221 1.345.507 1.991.868zM1197.138 212.866c-13.16-1.387-24.787-10.574-28.613-24.081-5.022-17.73 5.282-36.165 23.002-41.185a33.56 33.56 0 0 1 5.674-1.083 33.224 33.224 0 0 0-12.576 1.08c-17.72 5.02-28.025 23.455-23.002 41.185 4.484 15.833 19.688 25.733 35.515 24.084zM1247.06 179.444l3.975-1.126c5.953-1.686 9.411-7.879 7.725-13.832-1.686-5.953-7.879-9.411-13.832-7.725l-.408.116a11.19 11.19 0 0 1 7.338 7.606c1.686 5.953-1.772 12.145-7.725 13.832l-3.975 1.126a46.515 46.515 0 0 1-1.973 13.646v.001l3.078 1.719c5.402 3.017 7.335 9.842 4.318 15.243a11.152 11.152 0 0 1-6.35 5.189c4.989 1.632 10.596-.431 13.252-5.186 3.017-5.402 1.083-12.226-4.318-15.243l-3.078-1.719v-.001a46.51 46.51 0 0 0 1.973-13.646zM1222.587 220.607a46.2 46.2 0 0 0 8.5-5.869c-.251-.117-.503-.233-.749-.37l-3.613-2.018a46.106 46.106 0 0 1-11.04 8.254l.962 3.395c1.65 5.826-1.634 11.869-7.354 13.706 2.045.67 4.304.759 6.53.129 5.953-1.686 9.411-7.879 7.725-13.832l-.961-3.395zM1180.32 224.16l-.003-.001-1.718 3.076a11.146 11.146 0 0 1-6.349 5.189c4.989 1.632 10.595-.431 13.252-5.186l.942-1.686a46.355 46.355 0 0 1-6.124-1.392z" class="color3879C2 svgShape"/><path fill="#d94559" d="M896.402 102.597h-8.366l-24.179-24.18 22.203-22.201h8.366l-22.204 22.201zM994.895 78.417l-24.178 24.18h-8.368l24.18-24.18-22.202-22.201h8.364zM947.851 56.216l-29.911 46.381h-7.04l29.911-46.381z" class="colorD94559 svgShape"/><path fill="#69afff" d="m1275.619 596.008-12.359-5.694.081 8.184h-72.427v6.899h72.496l.082 8.185 12.244-5.94 12.243-5.94zM1186.554 627.878l12.36-5.695-.082 8.185h72.428v6.899h-72.497l-.081 8.185-12.244-5.94-12.243-5.94z" class="color69AFFF svgShape"/><path fill="#f5895b" d="m223.841 398.376-10.699-4.929.071 7.085h-62.698v5.972h62.757l.071 7.086 10.599-5.143 10.598-5.142zM146.741 425.965l10.7-4.93-.071 7.085h62.697v5.973H157.31l-.071 7.085-10.598-5.142-10.599-5.142z" class="colorF5895B svgShape"/><path fill="#ffb86b" d="m1081.402 85.862 3.242-3.242a1.884 1.884 0 0 0-2.664-2.665l-3.242 3.242-3.242-3.242a1.883 1.883 0 1 0-2.664 2.665l3.242 3.242-3.236 3.236a1.884 1.884 0 0 0 2.664 2.665l3.236-3.236 3.236 3.236c.368.368.85.552 1.332.552s.965-.184 1.332-.552a1.884 1.884 0 0 0 0-2.665l-3.236-3.236zM70.367 300.446l3.242-3.242a1.884 1.884 0 0 0-2.664-2.665l-3.242 3.242-3.242-3.242a1.883 1.883 0 1 0-2.664 2.665l3.242 3.242-3.236 3.236a1.884 1.884 0 0 0 2.664 2.665l3.236-3.236 3.236 3.236c.368.368.85.552 1.332.552a1.884 1.884 0 0 0 1.332-3.217l-3.236-3.236z" class="colorFFB86B svgShape"/><path fill="#3879c2" d="M1185.49 709.741c-4.083 0-7.404-3.321-7.404-7.404s3.321-7.404 7.404-7.404c4.082 0 7.404 3.321 7.404 7.404 0 4.082-3.321 7.404-7.404 7.404zm0-12.491a5.093 5.093 0 0 0-5.087 5.087 5.093 5.093 0 0 0 5.087 5.087 5.093 5.093 0 0 0 5.087-5.087 5.093 5.093 0 0 0-5.087-5.087zM695.631 93.263c-4.082 0-7.404-3.321-7.404-7.404s3.321-7.404 7.404-7.404c4.082 0 7.404 3.321 7.404 7.404 0 4.082-3.322 7.404-7.404 7.404zm0-12.491a5.093 5.093 0 0 0-5.087 5.087 5.093 5.093 0 0 0 5.087 5.087 5.093 5.093 0 0 0 5.087-5.087 5.093 5.093 0 0 0-5.087-5.087zM129.648 658.947c-4.082 0-7.404-3.321-7.404-7.404s3.321-7.404 7.404-7.404c4.082 0 7.404 3.321 7.404 7.404s-3.322 7.404-7.404 7.404zm0-12.491a5.093 5.093 0 0 0-5.087 5.087 5.093 5.093 0 0 0 5.087 5.087 5.093 5.093 0 0 0 5.087-5.087 5.094 5.094 0 0 0-5.087-5.087z" class="color3879C2 svgShape"/><path fill="#de5d6e" d="M381.64 77.462c.337.545.445 1.201.287 1.847a2.407 2.407 0 0 1-1.68 1.756l-8.14 2.374a2.405 2.405 0 0 1-2.36-.577 2.405 2.405 0 0 1-.68-2.332l2.014-8.237a2.406 2.406 0 0 1 1.68-1.756 2.406 2.406 0 0 1 2.36.577l6.126 5.862c.154.149.285.312.393.486zm-10.654 3.912c.03.048.062.083.085.105a.503.503 0 0 0 .499.122l8.14-2.374a.504.504 0 0 0 .355-.372.504.504 0 0 0-.144-.493l-6.126-5.863a.505.505 0 0 0-.499-.122.505.505 0 0 0-.356.371l-2.014 8.237c-.04.169.006.3.06.389zM1265.33 503.965c.337.545.445 1.201.287 1.847a2.407 2.407 0 0 1-1.68 1.756l-8.14 2.374a2.405 2.405 0 0 1-2.36-.577 2.405 2.405 0 0 1-.68-2.332l2.014-8.237a2.401 2.401 0 0 1 1.68-1.755 2.406 2.406 0 0 1 2.36.577l6.126 5.862c.154.148.285.311.393.485zm-10.653 3.911c.03.048.062.083.085.105a.503.503 0 0 0 .499.122l8.14-2.374a.504.504 0 0 0 .355-.372.504.504 0 0 0-.144-.493l-6.126-5.863a.505.505 0 0 0-.499-.122.505.505 0 0 0-.356.371l-2.014 8.237a.494.494 0 0 0 .06.389z" class="colorDE5D6E svgShape"/></svg>